<svg xmlns="http://www.w3.org/2000/svg" viewBox="0 0 40 40"><title>instagram</title><path d="M343.4,4494.47a12.09,12.09,0,1,1-24-2.33H311.3v16.08a6.25,6.25,0,0,0,6.25,6.25h27.5a6.25,6.25,0,0,0,6.25-6.25v-16.08h-8.13A12.11,12.11,0,0,1,343.4,4494.47Zm1.66-20h-27.5a6.25,6.25,0,0,0-6.25,6.25v6.77h10.12a12.09,12.09,0,0,1,19.75,0H351.3v-6.77A6.25,6.25,0,0,0,345.05,4474.47Zm3.06,7.72a1.12,1.12,0,0,1-1.12,1.12h-3.35a1.12,1.12,0,0,1-1.12-1.12v-3.35a1.12,1.12,0,0,1,1.12-1.12H347a1.12,1.12,0,0,1,1.12,1.12v3.35Zm-9.36,12.28a7.44,7.44,0,1,0-7.44,7.44A7.44,7.44,0,0,0,338.75,4494.47Z" transform="translate(-311.3 -4474.47)"/></svg>