<svg xmlns="http://www.w3.org/2000/svg" viewBox="0 0 30 30"><defs><style>.a{fill:#262c30;}</style></defs><title>question-mark</title><path class="a" d="M14.8,0A15,15,0,1,0,30,14.8,15,15,0,0,0,14.8,0Zm0,24.13h-.08a2.18,2.18,0,0,1,.05-4.37h.07a2.18,2.18,0,1,1,0,4.37Zm5.37-10.65a9.93,9.93,0,0,1-1.79,1.6l-.92.63a2.49,2.49,0,0,0-.92,1.12,2.31,2.31,0,0,0-.14.94v.15h-3.5v-.3a3.82,3.82,0,0,1,.58-2.52A14.84,14.84,0,0,1,16.05,13a2.76,2.76,0,0,0,.62-.63,2.22,2.22,0,0,0,.53-1.3,2.53,2.53,0,0,0-.48-1.49A2,2,0,0,0,15,8.94a1.89,1.89,0,0,0-1.75.81,3.24,3.24,0,0,0-.53,1.74v.15H9.11v-.16a5.48,5.48,0,0,1,2.34-4.72,6.17,6.17,0,0,1,3.39-.89,7.32,7.32,0,0,1,4.37,1.26A4.37,4.37,0,0,1,21,10.9,4.31,4.31,0,0,1,20.12,13.48Z"/></svg>