<svg xmlns="http://www.w3.org/2000/svg" viewBox="0 0 40 32.51"><title>twitter</title><path d="M1548.18,4082.07a16.42,16.42,0,0,1-4.71,1.29,8.23,8.23,0,0,0,3.61-4.54,16.45,16.45,0,0,1-5.21,2,8.21,8.21,0,0,0-14,7.48,23.29,23.29,0,0,1-16.91-8.57,8.21,8.21,0,0,0,2.54,11,8.17,8.17,0,0,1-3.72-1s0,0.07,0,.1a8.21,8.21,0,0,0,6.58,8,8.21,8.21,0,0,1-3.71.14,8.22,8.22,0,0,0,7.67,5.7,16.55,16.55,0,0,1-12.15,3.4,23.22,23.22,0,0,0,12.58,3.69c15.09,0,23.35-12.51,23.35-23.35q0-.53,0-1.06A16.66,16.66,0,0,0,1548.18,4082.07Z" transform="translate(-1508.18 -4078.22)"/></svg>